<svg version="1.1" xmlns="http://www.w3.org/2000/svg" viewBox="0 0 527.3333740234375 377.3333435058594" width="527.3333740234375" height="377.3333435058594" filter="invert(93%) hue-rotate(180deg)">
  <!-- svg-source:excalidraw -->
  
  <defs>
    <style>
      @font-face {
        font-family: "Virgil";
        src: url("https://unpkg.com/@zsviczian/excalidraw@0.11.0-obsidian-17/dist/excalidraw-assets/Virgil.woff2");
      }
      @font-face {
        font-family: "Cascadia";
        src: url("https://unpkg.com/@zsviczian/excalidraw@0.11.0-obsidian-17/dist/excalidraw-assets/Cascadia.woff2");
      }
    </style>
  </defs>
  <rect x="0" y="0" width="527.3333740234375" height="377.3333435058594" fill="#ffffff"/><g transform="translate(36.6666259765625 198) rotate(0 -11.33331298828125 71.66667175292969)" stroke="none"><path fill="#000000" d="M 1.54,0.23 Q 1.54,0.23 1.12,2.72 0.71,5.21 -0.05,8.97 -0.82,12.74 -2.30,20.83 -3.78,28.93 -5.76,39.09 -7.73,49.25 -10.11,60.47 -12.49,71.70 -14.27,82.94 -16.04,94.19 -17.57,104.16 -19.09,114.12 -19.73,121.01 -20.38,127.89 -20.66,132.34 -20.93,136.79 -21.00,138.70 -21.07,140.60 -21.12,140.83 -21.17,141.05 -21.29,141.25 -21.41,141.44 -21.59,141.59 -21.77,141.74 -21.98,141.82 -22.19,141.91 -22.42,141.92 -22.65,141.93 -22.87,141.87 -23.09,141.80 -23.28,141.67 -23.47,141.54 -23.61,141.36 -23.75,141.17 -23.82,140.96 -23.89,140.74 -23.89,140.51 -23.89,140.28 -23.81,140.06 -23.74,139.84 -23.60,139.66 -23.46,139.48 -23.27,139.35 -23.08,139.22 -22.85,139.16 -22.63,139.10 -22.40,139.12 -22.17,139.13 -21.96,139.22 -21.75,139.31 -21.57,139.46 -21.40,139.61 -21.28,139.80 -21.17,140.00 -21.12,140.23 -21.07,140.45 -21.10,140.68 -21.12,140.91 -21.22,141.11 -21.32,141.32 -21.48,141.49 -21.64,141.65 -21.84,141.76 -22.05,141.87 -22.27,141.90 -22.50,141.94 -22.73,141.90 -22.95,141.86 -23.15,141.75 -23.36,141.64 -23.51,141.47 -23.67,141.31 -23.77,141.10 -23.86,140.89 -23.88,140.66 -23.91,140.43 -23.91,140.43 -23.91,140.43 -23.74,138.53 -23.58,136.63 -23.31,132.14 -23.03,127.64 -22.39,120.68 -21.74,113.72 -20.22,103.75 -18.71,93.77 -16.93,82.45 -15.16,71.13 -12.81,59.93 -10.45,48.72 -8.50,38.57 -6.55,28.43 -5.10,20.31 -3.66,12.18 -2.95,8.47 -2.24,4.75 -1.89,2.25 -1.54,-0.23 -1.49,-0.41 -1.44,-0.60 -1.34,-0.76 -1.25,-0.92 -1.12,-1.06 -0.99,-1.20 -0.83,-1.30 -0.68,-1.40 -0.50,-1.46 -0.32,-1.52 -0.13,-1.54 0.04,-1.56 0.23,-1.53 0.42,-1.50 0.59,-1.43 0.76,-1.35 0.92,-1.24 1.07,-1.13 1.19,-0.99 1.31,-0.84 1.39,-0.67 1.47,-0.50 1.51,-0.32 1.55,-0.13 1.54,0.04 1.54,0.23 1.54,0.23 L 1.54,0.23 Z"/></g><g transform="translate(76.6666259765625 204.66668701171875) rotate(0 -9.666656494140625 57.33332824707031)" stroke="none"><path fill="#000000" d="M 1.59,0.47 Q 1.59,0.47 1.00,2.39 0.41,4.30 -0.84,7.45 -2.11,10.61 -3.96,18.91 -5.81,27.21 -6.99,36.84 -8.17,46.48 -9.26,57.49 -10.35,68.50 -11.39,78.36 -12.43,88.23 -13.46,94.94 -14.49,101.65 -15.51,105.52 -16.54,109.39 -16.89,111.03 -17.23,112.66 -17.33,112.89 -17.43,113.11 -17.60,113.29 -17.77,113.47 -17.98,113.59 -18.20,113.70 -18.44,113.75 -18.68,113.79 -18.92,113.75 -19.16,113.72 -19.38,113.60 -19.60,113.49 -19.77,113.32 -19.94,113.14 -20.05,112.92 -20.15,112.70 -20.18,112.45 -20.21,112.21 -20.16,111.97 -20.11,111.73 -19.99,111.52 -19.86,111.31 -19.68,111.15 -19.49,110.99 -19.27,110.89 -19.04,110.80 -18.80,110.78 -18.55,110.77 -18.31,110.83 -18.08,110.89 -17.87,111.03 -17.67,111.16 -17.52,111.36 -17.37,111.55 -17.29,111.78 -17.20,112.01 -17.20,112.26 -17.20,112.50 -17.27,112.74 -17.35,112.97 -17.50,113.17 -17.64,113.36 -17.84,113.50 -18.04,113.64 -18.28,113.71 -18.52,113.78 -18.76,113.77 -19.00,113.76 -19.23,113.67 -19.46,113.58 -19.65,113.43 -19.84,113.27 -19.97,113.06 -20.10,112.85 -20.15,112.61 -20.21,112.37 -20.18,112.13 -20.16,111.89 -20.16,111.89 -20.16,111.89 -19.65,110.29 -19.14,108.70 -18.16,104.97 -17.18,101.24 -16.18,94.59 -15.18,87.94 -14.16,78.08 -13.14,68.23 -12.08,57.18 -11.02,46.14 -9.86,36.35 -8.70,26.57 -6.85,18.04 -4.99,9.50 -3.85,6.43 -2.71,3.36 -2.15,1.44 -1.59,-0.47 -1.51,-0.66 -1.43,-0.84 -1.31,-1.00 -1.19,-1.16 -1.03,-1.29 -0.87,-1.41 -0.69,-1.50 -0.51,-1.58 -0.31,-1.62 -0.11,-1.66 0.08,-1.65 0.28,-1.64 0.47,-1.58 0.66,-1.52 0.84,-1.42 1.01,-1.32 1.15,-1.18 1.30,-1.04 1.40,-0.87 1.51,-0.70 1.57,-0.50 1.63,-0.31 1.65,-0.11 1.66,0.08 1.63,0.28 1.59,0.47 1.59,0.47 L 1.59,0.47 Z"/></g><g transform="translate(10 266.66668701171875) rotate(0 25.33331298828125 0.3333282470703125)" stroke="none"><path fill="#000000" d="M 0,-1.86 Q 0,-1.86 2.68,-1.78 5.36,-1.71 9.99,-1.46 14.61,-1.21 19.41,-1.09 24.22,-0.97 28.56,-0.91 32.91,-0.85 36.48,-0.81 40.05,-0.78 42.91,-0.75 45.77,-0.73 47.77,-0.83 49.78,-0.93 50.04,-0.88 50.29,-0.84 50.52,-0.72 50.75,-0.60 50.92,-0.41 51.10,-0.22 51.21,0.00 51.32,0.24 51.34,0.49 51.37,0.75 51.32,1.00 51.26,1.25 51.13,1.48 50.99,1.70 50.80,1.86 50.60,2.03 50.36,2.13 50.12,2.22 49.86,2.23 49.60,2.25 49.35,2.18 49.10,2.11 48.89,1.96 48.68,1.82 48.52,1.61 48.37,1.41 48.28,1.16 48.20,0.92 48.20,0.66 48.20,0.40 48.29,0.15 48.37,-0.08 48.52,-0.29 48.68,-0.49 48.90,-0.64 49.11,-0.78 49.36,-0.85 49.61,-0.92 49.87,-0.90 50.12,-0.89 50.36,-0.79 50.60,-0.70 50.80,-0.53 51.00,-0.36 51.13,-0.14 51.26,0.07 51.32,0.32 51.37,0.58 51.34,0.83 51.32,1.09 51.21,1.32 51.10,1.56 50.92,1.75 50.74,1.93 50.51,2.05 50.28,2.17 50.03,2.22 49.77,2.26 49.77,2.26 49.77,2.26 47.77,2.15 45.76,2.05 42.90,2.06 40.04,2.07 36.46,2.07 32.88,2.08 28.53,2.07 24.17,2.07 19.32,2.02 14.48,1.98 9.92,1.84 5.36,1.71 2.68,1.78 0,1.86 -0.22,1.83 -0.44,1.80 -0.65,1.72 -0.86,1.64 -1.04,1.51 -1.23,1.39 -1.38,1.22 -1.53,1.05 -1.63,0.85 -1.73,0.65 -1.79,0.44 -1.84,0.22 -1.84,-0.00 -1.84,-0.22 -1.79,-0.44 -1.73,-0.65 -1.63,-0.85 -1.53,-1.05 -1.38,-1.22 -1.23,-1.39 -1.04,-1.51 -0.86,-1.64 -0.65,-1.72 -0.44,-1.80 -0.22,-1.83 0.00,-1.86 0.00,-1.86 L 0,-1.86 Z"/></g><g transform="translate(84.6666259765625 274) rotate(0 5.333343505859375 10.000015258789062)" stroke="none"><path fill="#000000" d="M 0,-2.50 Q 0,-2.50 1.12,-2.53 2.24,-2.55 4.28,-3.40 6.32,-4.25 7.88,-4.81 9.45,-5.38 10.57,-5.98 11.69,-6.57 12.72,-7.21 13.74,-7.85 14.99,-8.68 16.24,-9.50 16.47,-11.27 16.70,-13.05 17.07,-11.67 17.44,-10.30 16.15,-10.27 14.87,-10.24 12.61,-9.92 10.35,-9.60 8.26,-9.32 6.17,-9.04 3.68,-8.78 1.20,-8.53 -0.10,-8.16 -1.40,-7.79 -2.81,-7.43 -4.21,-7.08 -5.32,-6.35 -6.42,-5.63 -6.64,-2.33 -6.85,0.97 -6.47,5.14 -6.08,9.32 -5.39,13.22 -4.70,17.12 -4.06,20.12 -3.41,23.13 -2.75,24.66 -2.08,26.19 -0.96,27.30 0.16,28.42 1.19,28.77 2.23,29.12 3.87,29.78 5.50,30.43 6.67,30.62 7.84,30.80 8.99,30.83 10.14,30.86 11.43,30.76 12.72,30.66 14.84,30.60 16.96,30.55 17.41,30.62 17.85,30.70 18.25,30.91 18.64,31.12 18.95,31.44 19.26,31.77 19.45,32.18 19.64,32.59 19.69,33.03 19.74,33.48 19.64,33.92 19.54,34.36 19.31,34.74 19.08,35.13 18.74,35.42 18.39,35.71 17.97,35.88 17.56,36.04 17.11,36.07 16.66,36.09 16.23,35.97 15.79,35.85 15.42,35.60 15.05,35.34 14.78,34.99 14.50,34.63 14.36,34.20 14.22,33.78 14.22,33.33 14.22,32.88 14.36,32.45 14.51,32.02 14.78,31.67 15.05,31.31 15.42,31.06 15.80,30.81 16.23,30.69 16.66,30.57 17.11,30.59 17.56,30.61 17.98,30.78 18.40,30.95 18.74,31.24 19.08,31.53 19.31,31.92 19.54,32.30 19.64,32.74 19.74,33.18 19.69,33.63 19.64,34.07 19.45,34.48 19.26,34.89 18.95,35.22 18.64,35.54 18.24,35.75 17.85,35.96 17.40,36.03 16.96,36.11 16.96,36.11 16.96,36.11 14.38,36.01 11.80,35.91 10.74,35.78 9.67,35.65 8.31,35.35 6.95,35.04 5.50,34.67 4.05,34.30 2.24,33.66 0.42,33.02 -1.72,31.42 -3.87,29.82 -4.57,28.68 -5.28,27.54 -6.00,25.73 -6.71,23.92 -7.51,20.88 -8.31,17.84 -9.21,13.82 -10.11,9.80 -10.76,5.27 -11.42,0.75 -11.43,-2.02 -11.44,-4.79 -10.77,-6.95 -10.10,-9.12 -9.18,-9.82 -8.27,-10.53 -6.58,-11.15 -4.89,-11.77 -3.66,-11.84 -2.43,-11.91 -0.93,-12.24 0.57,-12.57 2.89,-13.06 5.22,-13.56 7.22,-14.14 9.23,-14.72 12.11,-15.52 14.99,-16.33 16.18,-16.30 17.38,-16.27 18.54,-16.07 19.70,-15.87 20.49,-15.13 21.27,-14.38 21.35,-12.12 21.42,-9.85 21.26,-8.78 21.11,-7.71 19.73,-6.14 18.36,-4.56 17.34,-4.05 16.33,-3.53 15.15,-2.85 13.98,-2.18 12.62,-1.48 11.27,-0.79 9.72,-0.13 8.17,0.53 6.74,1.11 5.31,1.69 3.83,2.12 2.35,2.55 1.17,2.53 0,2.50 -0.29,2.46 -0.59,2.43 -0.88,2.32 -1.16,2.21 -1.41,2.04 -1.66,1.87 -1.86,1.64 -2.06,1.42 -2.20,1.15 -2.34,0.88 -2.41,0.59 -2.48,0.30 -2.48,-0.00 -2.48,-0.30 -2.41,-0.59 -2.34,-0.88 -2.20,-1.15 -2.06,-1.42 -1.86,-1.65 -1.66,-1.87 -1.41,-2.04 -1.16,-2.21 -0.88,-2.32 -0.59,-2.43 -0.29,-2.46 0.00,-2.50 0.00,-2.50 L 0,-2.50 Z"/></g><g transform="translate(123.33331298828125 202.66668701171875) rotate(0 11.333343505859375 54.666656494140625)" stroke="none"><path fill="#000000" d="M 1.56,0 Q 1.56,0 1.52,5.17 1.49,10.35 1.46,17.14 1.44,23.94 2.57,33.46 3.69,42.97 4.17,51.31 4.65,59.65 4.85,66.07 5.05,72.49 5.13,77.52 5.21,82.55 5.05,87.21 4.90,91.87 4.83,95.55 4.76,99.23 4.73,101.75 4.70,104.27 5.71,105.56 6.73,106.85 7.88,106.97 9.04,107.09 10.13,106.93 11.22,106.77 12.59,106.17 13.96,105.56 15.37,104.34 16.78,103.12 17.47,101.59 18.16,100.06 19.17,97.95 20.18,95.83 20.40,95.53 20.62,95.24 20.92,95.03 21.22,94.81 21.58,94.71 21.93,94.61 22.30,94.62 22.67,94.64 23.02,94.77 23.36,94.91 23.65,95.14 23.93,95.38 24.13,95.69 24.32,96.01 24.40,96.37 24.49,96.73 24.45,97.09 24.42,97.46 24.26,97.80 24.11,98.14 23.86,98.41 23.61,98.68 23.29,98.86 22.96,99.03 22.60,99.10 22.23,99.16 21.87,99.11 21.50,99.05 21.17,98.88 20.85,98.71 20.59,98.45 20.33,98.18 20.17,97.85 20.01,97.51 19.97,97.15 19.92,96.78 20.00,96.42 20.08,96.06 20.26,95.74 20.45,95.42 20.73,95.18 21.01,94.93 21.35,94.79 21.69,94.65 22.06,94.63 22.43,94.60 22.79,94.70 23.14,94.79 23.45,95.00 23.76,95.20 23.99,95.49 24.21,95.78 24.34,96.13 24.46,96.48 24.46,96.85 24.47,97.22 24.35,97.57 24.24,97.92 24.24,97.92 24.24,97.92 23.19,99.81 22.13,101.70 21.22,104.07 20.30,106.44 19.02,107.64 17.73,108.85 16.55,109.40 15.38,109.95 13.43,110.37 11.49,110.79 9.91,110.79 8.34,110.79 6.82,110.38 5.31,109.98 3.82,108.99 2.32,107.99 2.18,106.12 2.04,104.24 2.07,101.71 2.09,99.18 2.16,95.48 2.22,91.78 2.37,87.19 2.51,82.60 2.42,77.59 2.33,72.58 2.11,66.20 1.89,59.81 1.39,51.56 0.90,43.31 -0.27,33.63 -1.44,23.94 -1.46,17.14 -1.49,10.35 -1.52,5.17 -1.56,0 -1.53,-0.18 -1.51,-0.37 -1.45,-0.54 -1.38,-0.72 -1.27,-0.88 -1.16,-1.03 -1.02,-1.16 -0.88,-1.28 -0.72,-1.37 -0.55,-1.46 -0.37,-1.50 -0.18,-1.55 0.00,-1.55 0.18,-1.55 0.37,-1.50 0.55,-1.46 0.72,-1.37 0.88,-1.28 1.02,-1.16 1.16,-1.03 1.27,-0.88 1.38,-0.72 1.45,-0.54 1.51,-0.37 1.53,-0.18 1.56,0.00 1.56,0.00 L 1.56,0 Z"/></g><g transform="translate(168.6666259765625 204.66668701171875) rotate(0 14.66668701171875 54)" stroke="none"><path fill="#000000" d="M 1.56,0 Q 1.56,0 1.52,2.3 1.49,4.6 1.46,8.26 1.44,11.92 1.42,17.31 1.40,22.70 1.39,30.35 1.38,38.01 1.37,46.63 1.36,55.25 1.35,63.13 1.34,71.01 1.72,77.19 2.10,83.38 2.83,87.87 3.55,92.37 4.79,95.52 6.02,98.67 6.93,100.81 7.85,102.95 8.52,103.95 9.19,104.96 10.50,105.35 11.82,105.74 13.39,105.78 14.96,105.83 16.03,105.78 17.11,105.73 18.40,105.49 19.69,105.25 20.87,104.53 22.05,103.81 23.19,102.48 24.33,101.15 25.39,99.20 26.45,97.26 26.74,96.90 27.03,96.54 27.42,96.28 27.81,96.03 28.26,95.92 28.71,95.80 29.17,95.84 29.63,95.87 30.06,96.05 30.49,96.23 30.84,96.54 31.18,96.85 31.41,97.25 31.64,97.66 31.73,98.11 31.82,98.57 31.76,99.03 31.70,99.49 31.50,99.90 31.30,100.32 30.97,100.65 30.64,100.98 30.23,101.19 29.81,101.40 29.35,101.46 28.89,101.53 28.44,101.44 27.98,101.36 27.58,101.13 27.17,100.91 26.86,100.56 26.55,100.22 26.36,99.79 26.18,99.37 26.14,98.91 26.10,98.44 26.21,97.99 26.32,97.54 26.56,97.15 26.81,96.76 27.17,96.46 27.53,96.17 27.97,96.01 28.40,95.85 28.87,95.83 29.33,95.82 29.77,95.95 30.22,96.08 30.60,96.35 30.97,96.62 31.25,97.00 31.52,97.37 31.66,97.82 31.80,98.26 31.79,98.72 31.78,99.19 31.62,99.62 31.46,100.06 31.46,100.06 31.46,100.06 30.51,101.68 29.56,103.30 28.20,104.82 26.84,106.34 25.80,107.33 24.76,108.32 23.72,108.87 22.69,109.43 20.91,109.88 19.14,110.32 18.08,110.26 17.02,110.19 15.92,110.10 14.83,110.01 13.11,109.95 11.39,109.89 9.88,109.58 8.37,109.28 7.39,107.85 6.41,106.42 5.91,105.20 5.41,103.99 4.48,101.81 3.54,99.63 2.23,96.21 0.92,92.80 0.17,88.17 -0.57,83.54 -0.96,77.28 -1.34,71.01 -1.35,63.13 -1.36,55.25 -1.37,46.63 -1.38,38.01 -1.39,30.35 -1.40,22.70 -1.42,17.31 -1.44,11.92 -1.46,8.26 -1.49,4.6 -1.52,2.3 -1.56,0 -1.53,-0.18 -1.51,-0.37 -1.45,-0.54 -1.38,-0.72 -1.27,-0.88 -1.16,-1.03 -1.02,-1.16 -0.88,-1.28 -0.72,-1.37 -0.55,-1.46 -0.37,-1.50 -0.18,-1.55 0.00,-1.55 0.18,-1.55 0.37,-1.50 0.55,-1.46 0.72,-1.37 0.88,-1.28 1.02,-1.16 1.16,-1.03 1.27,-0.88 1.38,-0.72 1.45,-0.54 1.51,-0.37 1.53,-0.18 1.56,0.00 1.56,0.00 L 1.56,0 Z"/></g><g transform="translate(229.33331298828125 276.66668701171875) rotate(0 -17 5.3333282470703125)" stroke="none"><path fill="#000000" d="M -0.55,1.94 Q -0.55,1.94 -3.21,1.08 -5.86,0.22 -9.04,-0.53 -12.22,-1.30 -15.72,-2.23 -19.22,-3.16 -22.14,-3.55 -25.05,-3.94 -27.44,-4.12 -29.83,-4.31 -31.24,-4.27 -32.65,-4.24 -33.88,-2.80 -35.11,-1.36 -35.56,0.25 -36.02,1.87 -36.45,3.72 -36.88,5.56 -37.03,7.23 -37.18,8.89 -37.24,10.54 -37.29,12.19 -36.96,13.37 -36.62,14.54 -35.76,15.32 -34.90,16.10 -32.72,16.84 -30.54,17.59 -28.45,18.01 -26.36,18.42 -24.34,18.62 -22.32,18.82 -20.68,18.83 -19.05,18.85 -17.97,18.78 -16.89,18.71 -15.50,18.58 -14.12,18.44 -12.87,18.33 -11.61,18.21 -9.80,17.96 -7.98,17.72 -6.60,17.46 -5.22,17.19 -3.91,15.32 -2.60,13.45 -1.96,11.99 -1.33,10.52 -0.60,9.29 0.12,8.07 0.25,6.97 0.37,5.88 0.47,4.40 0.57,2.93 0.96,0.65 1.35,-1.62 1.47,-3.28 1.59,-4.94 2.18,-7.32 2.76,-9.71 2.92,-10.06 3.09,-10.41 3.35,-10.69 3.62,-10.97 3.97,-11.15 4.31,-11.33 4.69,-11.39 5.07,-11.45 5.46,-11.39 5.84,-11.32 6.18,-11.14 6.52,-10.96 6.79,-10.68 7.05,-10.39 7.21,-10.04 7.37,-9.69 7.41,-9.30 7.45,-8.92 7.37,-8.54 7.28,-8.16 7.08,-7.83 6.88,-7.50 6.59,-7.25 6.29,-7.00 5.93,-6.86 5.57,-6.72 5.18,-6.70 4.79,-6.68 4.42,-6.78 4.05,-6.89 3.73,-7.11 3.41,-7.33 3.17,-7.64 2.94,-7.95 2.82,-8.31 2.70,-8.68 2.70,-9.07 2.70,-9.46 2.83,-9.82 2.95,-10.19 3.19,-10.50 3.42,-10.81 3.75,-11.02 4.07,-11.24 4.44,-11.34 4.82,-11.44 5.20,-11.42 5.59,-11.39 5.95,-11.25 6.31,-11.10 6.60,-10.85 6.90,-10.60 7.09,-10.27 7.29,-9.93 7.37,-9.55 7.46,-9.18 7.41,-8.79 7.37,-8.41 7.37,-8.41 7.37,-8.41 6.75,-6.54 6.13,-4.68 6.07,-2.92 6.01,-1.17 5.98,0.95 5.95,3.09 5.94,4.79 5.94,6.49 5.71,7.90 5.48,9.31 4.54,10.90 3.60,12.49 3.07,13.98 2.54,15.46 2.09,16.63 1.64,17.80 1.12,18.84 0.60,19.88 -0.47,20.71 -1.54,21.55 -2.88,21.91 -4.22,22.27 -5.62,22.55 -7.02,22.84 -9.32,22.97 -11.62,23.11 -12.89,22.99 -14.16,22.86 -15.58,22.70 -16.99,22.53 -18.09,22.40 -19.19,22.27 -20.88,22.15 -22.56,22.02 -24.75,21.90 -26.93,21.78 -29.34,21.43 -31.74,21.08 -34.72,20.03 -37.70,18.98 -39.06,17.34 -40.41,15.70 -40.78,13.88 -41.15,12.07 -41.06,10.30 -40.97,8.53 -40.79,6.66 -40.60,4.79 -40.24,2.81 -39.87,0.83 -39.36,-1.11 -38.84,-3.07 -37.78,-4.94 -36.72,-6.82 -34.61,-7.18 -32.49,-7.55 -31.06,-7.38 -29.64,-7.22 -27.16,-7.08 -24.68,-6.95 -21.57,-6.59 -18.45,-6.24 -14.98,-5.42 -11.50,-4.60 -8.18,-3.94 -4.86,-3.29 -2.15,-2.61 0.55,-1.94 0.77,-1.84 1.00,-1.75 1.19,-1.60 1.39,-1.46 1.54,-1.27 1.70,-1.08 1.80,-0.86 1.91,-0.64 1.96,-0.40 2.01,-0.16 2.00,0.07 1.99,0.31 1.92,0.55 1.85,0.78 1.73,0.99 1.61,1.20 1.44,1.38 1.28,1.55 1.07,1.68 0.87,1.81 0.64,1.89 0.41,1.97 0.16,1.99 -0.07,2.01 -0.31,1.97 -0.55,1.94 -0.55,1.94 L -0.55,1.94 Z"/></g><g transform="translate(296.6666259765625 208) rotate(0 2.66668701171875 59.66667175292969)" stroke="none"><path fill="#000000" d="M 1.54,-0.46 Q 1.54,-0.46 2.65,3.38 3.76,7.22 4.82,13.94 5.88,20.65 6.89,29.83 7.90,39.00 8.32,48.68 8.75,58.36 8.73,67.85 8.71,77.34 8.12,85.63 7.54,93.91 6.90,100.69 6.26,107.46 5.80,111.50 5.33,115.53 5.18,117.44 5.03,119.35 4.86,119.97 4.70,120.58 4.65,120.78 4.61,120.97 4.52,121.15 4.43,121.32 4.30,121.47 4.18,121.62 4.02,121.74 3.86,121.85 3.67,121.93 3.49,122.00 3.29,122.03 3.10,122.05 2.90,122.03 2.71,122.01 2.52,121.95 2.33,121.88 2.17,121.77 2.00,121.66 1.87,121.52 1.74,121.37 1.64,121.20 1.55,121.03 1.50,120.84 1.45,120.64 1.44,120.45 1.44,120.25 -0.26,113.65 -1.97,107.05 -3.73,98.40 -5.48,89.76 -6.42,79.87 -7.36,69.97 -7.75,60.40 -8.14,50.82 -8.30,42.73 -8.46,34.63 -8.14,29.04 -7.82,23.44 -7.48,20.48 -7.15,17.51 -6.94,16.25 -6.73,14.99 -6.69,14.81 -6.64,14.62 -6.55,14.45 -6.47,14.28 -6.34,14.13 -6.22,13.99 -6.06,13.88 -5.90,13.77 -5.72,13.70 -5.55,13.63 -5.36,13.60 -5.17,13.58 -4.97,13.60 -4.78,13.62 -4.60,13.69 -4.42,13.75 -4.26,13.86 -4.11,13.97 -3.98,14.11 -3.85,14.25 -3.76,14.42 -3.67,14.59 -3.62,14.77 -3.57,14.96 -3.57,15.15 -3.57,15.34 -2.78,19.92 -1.99,24.49 -0.64,32.12 0.69,39.75 2.22,48.57 3.75,57.39 5.35,65.73 6.95,74.06 8.40,81.64 9.84,89.21 11.03,94.91 12.21,100.61 12.72,104.63 13.24,108.64 13.46,110.70 13.68,112.77 13.68,112.93 13.69,113.09 13.65,113.25 13.61,113.41 13.54,113.56 13.46,113.70 13.35,113.82 13.25,113.95 13.11,114.04 12.98,114.13 12.83,114.19 12.68,114.25 12.51,114.27 12.35,114.29 12.19,114.27 12.03,114.25 11.88,114.20 11.72,114.14 11.59,114.05 11.45,113.96 11.34,113.84 11.24,113.72 11.16,113.57 11.08,113.43 11.04,113.27 11.00,113.11 10.30,107.02 9.60,100.92 8.35,91.70 7.11,82.48 6.01,71.64 4.91,60.80 3.87,49.29 2.84,37.78 2.02,28.68 1.20,19.58 0.85,13.77 0.50,7.96 0.36,5.11 0.21,2.27 0.70,1.70 1.18,1.13 0.95,1.19 0.71,1.25 0.47,1.22 0.22,1.20 0.00,1.10 -0.21,1.00 -0.39,0.84 -0.57,0.68 -0.69,0.46 -0.81,0.25 -0.85,0.01 -0.90,-0.22 -0.86,-0.46 -0.83,-0.71 -0.72,-0.92 -0.61,-1.14 -0.43,-1.31 -0.26,-1.48 -0.04,-1.59 0.17,-1.70 0.42,-1.73 0.66,-1.76 0.90,-1.71 1.14,-1.66 1.35,-1.54 1.56,-1.42 1.72,-1.23 1.88,-1.05 1.98,-0.82 2.07,-0.60 2.09,-0.36 2.10,-0.11 2.04,0.11 1.98,0.35 1.85,0.56 1.72,0.76 1.52,0.91 1.33,1.06 1.10,1.14 0.87,1.23 0.63,1.23 0.38,1.23 0.15,1.16 -0.07,1.09 -0.27,0.94 -0.47,0.80 -0.61,0.60 -0.75,0.40 -0.82,0.16 -0.89,-0.06 -0.88,-0.30 -0.87,-0.55 -0.78,-0.78 -0.69,-1.00 -0.54,-1.19 -0.38,-1.38 -0.18,-1.51 0.02,-1.64 0.02,-1.64 0.02,-1.64 1.45,0.24 2.89,2.13 3.04,4.96 3.20,7.80 3.55,13.56 3.91,19.33 4.75,28.43 5.59,37.53 6.65,49.02 7.71,60.51 8.83,71.30 9.96,82.09 11.25,91.31 12.55,100.53 13.12,106.65 13.68,112.77 13.68,112.93 13.69,113.09 13.65,113.25 13.61,113.41 13.54,113.56 13.46,113.70 13.35,113.82 13.25,113.95 13.11,114.04 12.98,114.13 12.83,114.19 12.68,114.25 12.51,114.27 12.35,114.29 12.19,114.27 12.03,114.25 11.88,114.20 11.72,114.14 11.59,114.05 11.45,113.96 11.34,113.84 11.24,113.72 11.16,113.57 11.08,113.43 11.04,113.27 11.00,113.11 10.80,111.04 10.59,108.98 10.09,105.07 9.59,101.16 8.39,95.44 7.19,89.72 5.73,82.15 4.27,74.58 2.64,66.22 1.01,57.87 -0.53,49.06 -2.09,40.25 -3.48,32.54 -4.88,24.83 -5.81,19.91 -6.73,14.99 -6.69,14.81 -6.64,14.62 -6.55,14.45 -6.47,14.28 -6.34,14.13 -6.22,13.99 -6.06,13.88 -5.90,13.77 -5.72,13.70 -5.55,13.63 -5.36,13.60 -5.17,13.58 -4.97,13.60 -4.78,13.62 -4.60,13.69 -4.42,13.75 -4.27,13.86 -4.11,13.97 -3.98,14.11 -3.85,14.25 -3.76,14.42 -3.67,14.59 -3.62,14.77 -3.57,14.96 -3.57,15.15 -3.57,15.34 -4.02,16.58 -4.46,17.81 -4.78,20.70 -5.09,23.60 -5.39,29.09 -5.69,34.57 -5.50,42.64 -5.32,50.70 -4.90,60.20 -4.48,69.69 -3.51,79.42 -2.54,89.15 -0.71,97.82 1.11,106.49 2.07,112.10 3.03,117.70 3.87,119.14 4.70,120.58 4.65,120.78 4.61,120.97 4.52,121.15 4.43,121.32 4.30,121.47 4.18,121.62 4.02,121.74 3.86,121.85 3.67,121.93 3.49,122.00 3.29,122.03 3.10,122.05 2.90,122.03 2.71,122.01 2.52,121.95 2.33,121.88 2.17,121.77 2.00,121.66 1.87,121.52 1.74,121.37 1.64,121.20 1.55,121.03 1.50,120.84 1.45,120.64 1.44,120.45 1.44,120.25 1.82,119.63 2.20,119.02 2.44,117.12 2.68,115.23 3.13,111.22 3.59,107.21 4.21,100.47 4.83,93.72 5.40,85.53 5.96,77.34 5.96,67.91 5.95,58.49 5.51,48.90 5.06,39.32 4.01,30.22 2.97,21.12 1.90,14.61 0.83,8.10 -0.35,4.28 -1.54,0.46 -1.57,0.27 -1.61,0.08 -1.59,-0.11 -1.58,-0.30 -1.52,-0.49 -1.46,-0.67 -1.36,-0.84 -1.25,-1.00 -1.11,-1.14 -0.98,-1.27 -0.81,-1.37 -0.64,-1.47 -0.45,-1.53 -0.27,-1.58 -0.07,-1.59 0.11,-1.60 0.30,-1.57 0.49,-1.53 0.67,-1.45 0.84,-1.37 1.00,-1.24 1.15,-1.12 1.27,-0.97 1.38,-0.81 1.46,-0.64 1.54,-0.46 1.54,-0.46 L 1.54,-0.46 Z"/></g><g transform="translate(306.6666259765625 311.3333435058594) rotate(0 23.66668701171875 -48.333343505859375)" stroke="none"><path fill="#000000" d="M -1.71,-0.93 Q -1.71,-0.93 -0.48,-2.99 0.73,-5.06 1.98,-9.03 3.22,-13.00 4.55,-18.91 5.88,-24.82 7.62,-32.72 9.35,-40.62 10.88,-45.57 12.41,-50.51 13.26,-52.99 14.11,-55.47 14.57,-56.82 15.04,-58.16 15.37,-58.72 15.70,-59.28 15.81,-59.47 15.93,-59.66 16.08,-59.82 16.23,-59.97 16.42,-60.09 16.61,-60.20 16.82,-60.27 17.02,-60.34 17.24,-60.35 17.46,-60.37 17.68,-60.33 17.90,-60.29 18.10,-60.21 18.30,-60.12 18.47,-59.98 18.65,-59.85 18.78,-59.68 18.92,-59.51 19.01,-59.31 19.10,-59.11 19.15,-58.89 19.19,-58.68 19.18,-58.46 19.17,-58.24 19.10,-58.03 19.04,-57.82 20.66,-54.83 22.28,-51.84 23.38,-47.78 24.49,-43.71 25.52,-39.67 26.55,-35.64 27.38,-30.41 28.20,-25.18 29.11,-19.34 30.02,-13.51 31.16,-8.58 32.30,-3.66 32.97,-1.19 33.64,1.28 34.05,2.53 34.46,3.78 35.68,4.05 36.91,4.32 38.11,3.67 39.31,3.02 40.38,0.05 41.46,-2.91 42.62,-10.30 43.79,-17.69 44.33,-27.73 44.88,-37.76 44.18,-48.10 43.48,-58.44 42.25,-66.46 41.02,-74.48 40.13,-80.02 39.24,-85.56 38.67,-89.46 38.11,-93.37 37.10,-97.28 36.10,-101.20 36.08,-101.47 36.07,-101.74 36.14,-102.00 36.21,-102.26 36.36,-102.48 36.51,-102.71 36.72,-102.87 36.94,-103.04 37.19,-103.13 37.45,-103.21 37.72,-103.21 37.99,-103.22 38.24,-103.13 38.50,-103.05 38.72,-102.88 38.93,-102.72 39.08,-102.50 39.24,-102.28 39.31,-102.02 39.38,-101.76 39.37,-101.49 39.36,-101.22 39.26,-100.97 39.16,-100.71 38.99,-100.51 38.81,-100.30 38.58,-100.16 38.35,-100.02 38.09,-99.96 37.82,-99.90 37.56,-99.93 37.29,-99.96 37.04,-100.07 36.80,-100.18 36.60,-100.37 36.40,-100.55 36.27,-100.79 36.15,-101.03 36.10,-101.29 36.06,-101.56 36.10,-101.83 36.14,-102.09 36.27,-102.33 36.39,-102.57 36.59,-102.76 36.78,-102.94 37.03,-103.06 37.27,-103.17 37.54,-103.20 37.81,-103.23 38.07,-103.18 38.34,-103.12 38.57,-102.98 38.80,-102.84 38.98,-102.64 39.15,-102.44 39.25,-102.18 39.35,-101.93 39.35,-101.93 39.35,-101.93 40.15,-97.86 40.95,-93.79 41.56,-89.92 42.16,-86.05 43.12,-80.50 44.08,-74.96 45.42,-66.82 46.75,-58.68 47.57,-48.14 48.39,-37.60 47.99,-27.37 47.59,-17.14 46.54,-9.31 45.48,-1.47 44.05,2.49 42.61,6.47 40.81,7.72 39.01,8.97 37.08,8.83 35.15,8.70 34.02,8.18 32.89,7.65 32.11,6.08 31.33,4.51 31.16,3.26 31.00,2.00 30.29,-0.51 29.59,-3.03 28.41,-8.04 27.22,-13.06 26.27,-18.89 25.32,-24.71 24.47,-29.79 23.63,-34.87 22.53,-38.85 21.44,-42.83 20.25,-46.81 19.07,-50.78 18.25,-53.18 17.44,-55.58 16.57,-57.43 15.70,-59.28 15.81,-59.47 15.93,-59.66 16.08,-59.82 16.23,-59.97 16.42,-60.09 16.61,-60.20 16.82,-60.27 17.02,-60.34 17.24,-60.35 17.46,-60.37 17.68,-60.33 17.89,-60.29 18.10,-60.21 18.30,-60.12 18.47,-59.98 18.65,-59.85 18.78,-59.68 18.92,-59.51 19.01,-59.31 19.10,-59.11 19.15,-58.89 19.19,-58.68 19.18,-58.46 19.17,-58.24 19.10,-58.03 19.04,-57.82 18.53,-57.33 18.01,-56.83 17.39,-55.70 16.78,-54.57 15.98,-52.12 15.17,-49.67 13.72,-44.83 12.27,-39.99 10.60,-32.07 8.93,-24.15 7.66,-18.10 6.39,-12.04 5.12,-7.70 3.86,-3.37 2.78,-1.21 1.71,0.93 1.57,1.12 1.43,1.31 1.25,1.46 1.08,1.62 0.87,1.72 0.66,1.83 0.43,1.88 0.20,1.93 -0.03,1.93 -0.26,1.93 -0.49,1.87 -0.72,1.81 -0.92,1.69 -1.13,1.58 -1.30,1.42 -1.47,1.26 -1.61,1.07 -1.74,0.87 -1.82,0.65 -1.90,0.43 -1.92,0.20 -1.94,-0.03 -1.91,-0.26 -1.88,-0.49 -1.79,-0.71 -1.71,-0.93 -1.71,-0.93 L -1.71,-0.93 Z"/></g><g transform="translate(387.3333740234375 284) rotate(0 -6.666748046875 1.333343505859375)" stroke="none"><path fill="#000000" d="M -1.82,-0.30 Q -1.82,-0.30 -1.37,-2.59 -0.91,-4.88 -0.71,-6.92 -0.50,-8.97 -0.45,-10.80 -0.40,-12.63 0.24,-13.54 0.89,-14.45 -0.46,-13.93 -1.83,-13.41 -3.73,-11.92 -5.64,-10.44 -8.04,-7.93 -10.44,-5.42 -13.03,-2.44 -15.63,0.54 -17.90,3.15 -20.18,5.76 -22.11,8.01 -24.04,10.25 -25.44,11.96 -26.83,13.66 -26.89,14.79 -26.96,15.92 -25.90,16.46 -24.85,17.00 -23.14,17.24 -21.42,17.48 -19.10,17.51 -16.78,17.54 -14.06,16.49 -11.33,15.43 -9.02,14.72 -6.72,14.00 -4.41,13.17 -2.09,12.34 -0.19,11.46 1.70,10.58 3.76,9.80 5.81,9.03 7.31,8.14 8.81,7.25 10.19,6.29 11.57,5.32 12.55,4.62 13.53,3.92 14.51,2.93 15.48,1.94 15.68,1.69 15.87,1.44 16.14,1.26 16.40,1.09 16.71,1.01 17.02,0.93 17.33,0.95 17.65,0.97 17.95,1.09 18.24,1.21 18.48,1.42 18.72,1.63 18.88,1.90 19.04,2.18 19.11,2.49 19.17,2.80 19.13,3.12 19.10,3.43 18.96,3.72 18.82,4.01 18.60,4.24 18.38,4.46 18.10,4.61 17.81,4.76 17.50,4.80 17.18,4.85 16.87,4.80 16.56,4.74 16.28,4.59 16.00,4.44 15.78,4.20 15.57,3.97 15.44,3.68 15.31,3.39 15.27,3.07 15.24,2.75 15.32,2.44 15.39,2.13 15.56,1.86 15.72,1.59 15.97,1.39 16.21,1.19 16.51,1.07 16.81,0.96 17.12,0.94 17.44,0.93 17.75,1.02 18.05,1.11 18.32,1.29 18.58,1.47 18.77,1.73 18.96,1.98 19.05,2.29 19.15,2.59 19.15,2.91 19.14,3.22 19.04,3.53 18.93,3.83 18.93,3.83 18.93,3.83 17.22,5.50 15.50,7.18 14.49,7.68 13.47,8.18 11.95,9.15 10.43,10.11 8.72,11.04 7.01,11.98 5.12,12.80 3.22,13.61 1.25,14.68 -0.71,15.74 -3.01,16.77 -5.31,17.81 -7.55,18.77 -9.78,19.73 -11.44,20.40 -13.09,21.07 -14.91,21.72 -16.72,22.37 -18.22,22.34 -19.72,22.31 -20.87,22.18 -22.02,22.06 -23.42,21.80 -24.83,21.53 -25.94,21.01 -27.05,20.49 -28.64,19.35 -30.23,18.20 -30.72,17.13 -31.20,16.05 -31.05,14.98 -30.89,13.91 -29.97,12.89 -29.06,11.88 -27.68,10.12 -26.29,8.36 -24.40,6.07 -22.51,3.77 -20.30,1.11 -18.09,-1.54 -15.53,-4.64 -12.98,-7.75 -10.49,-10.55 -7.99,-13.35 -5.60,-15.33 -3.20,-17.31 -1.66,-17.74 -0.12,-18.17 1.30,-16.68 2.72,-15.19 2.79,-13.85 2.87,-12.52 2.77,-10.62 2.68,-8.73 2.56,-6.52 2.45,-4.31 2.13,-2.00 1.82,0.30 1.76,0.51 1.70,0.73 1.58,0.92 1.47,1.11 1.32,1.27 1.16,1.43 0.97,1.55 0.78,1.67 0.57,1.74 0.36,1.81 0.14,1.83 -0.08,1.85 -0.30,1.81 -0.52,1.77 -0.72,1.68 -0.93,1.60 -1.11,1.46 -1.28,1.33 -1.42,1.15 -1.56,0.98 -1.66,0.78 -1.75,0.57 -1.80,0.36 -1.84,0.14 -1.83,-0.08 -1.82,-0.30 -1.82,-0.30 L -1.82,-0.30 Z"/></g><g transform="translate(400.6666259765625 266.66668701171875) rotate(0 1.666748046875 22.333328247070312)" stroke="none"><path fill="#000000" d="M 1.74,0 Q 1.74,0 1.68,4.40 1.63,8.81 2.15,13.86 2.68,18.90 2.90,23.04 3.11,27.18 2.81,31.13 2.51,35.07 1.98,38.67 1.46,42.27 0.64,45.21 -0.17,48.15 -0.60,49.58 -1.03,51.01 -1.10,51.18 -1.17,51.36 -1.28,51.51 -1.40,51.67 -1.54,51.79 -1.69,51.91 -1.86,52.00 -2.03,52.08 -2.22,52.12 -2.40,52.16 -2.59,52.15 -2.78,52.15 -2.97,52.10 -3.15,52.05 -3.32,51.95 -3.48,51.86 -3.62,51.73 -3.76,51.60 -3.86,51.44 -3.97,51.28 -4.03,51.10 -4.09,50.92 -4.11,50.73 -4.13,50.54 -4.10,50.35 -4.07,50.17 -4.35,46.70 -4.63,43.24 -4.65,37.51 -4.68,31.78 -4.30,25.48 -3.92,19.17 -2.97,14.31 -2.03,9.45 -1.04,6.39 -0.04,3.33 0.76,1.25 1.57,-0.81 2.24,-2.49 2.91,-4.18 3.84,-6.09 4.76,-8.00 4.93,-8.21 5.09,-8.42 5.32,-8.57 5.54,-8.72 5.80,-8.79 6.07,-8.86 6.34,-8.84 6.60,-8.83 6.86,-8.72 7.11,-8.62 7.31,-8.44 7.51,-8.27 7.65,-8.03 7.79,-7.80 7.84,-7.54 7.90,-7.27 7.87,-7.00 7.83,-6.73 7.72,-6.49 7.60,-6.25 7.41,-6.05 7.23,-5.86 6.99,-5.73 6.75,-5.61 6.48,-5.57 6.21,-5.53 5.94,-5.57 5.68,-5.62 5.44,-5.75 5.20,-5.88 5.02,-6.08 4.84,-6.27 4.72,-6.52 4.61,-6.77 4.59,-7.04 4.56,-7.31 4.62,-7.57 4.68,-7.83 4.82,-8.06 4.97,-8.29 5.17,-8.47 5.38,-8.64 5.63,-8.74 5.89,-8.83 6.16,-8.85 6.43,-8.86 6.69,-8.78 6.95,-8.71 7.17,-8.55 7.39,-8.40 7.55,-8.18 7.71,-7.96 7.80,-7.71 7.88,-7.45 7.88,-7.18 7.87,-6.91 7.79,-6.65 7.70,-6.40 7.70,-6.40 7.70,-6.40 6.65,-4.69 5.61,-2.99 4.84,-1.41 4.07,0.16 3.29,2.16 2.52,4.16 1.58,7.06 0.64,9.97 -0.25,14.65 -1.16,19.33 -1.51,25.55 -1.86,31.76 -1.80,37.46 -1.74,43.16 -1.39,47.09 -1.03,51.01 -1.10,51.18 -1.17,51.36 -1.28,51.51 -1.40,51.67 -1.54,51.79 -1.69,51.91 -1.86,52.00 -2.03,52.08 -2.22,52.12 -2.40,52.16 -2.59,52.15 -2.78,52.15 -2.97,52.10 -3.15,52.05 -3.32,51.95 -3.48,51.86 -3.62,51.73 -3.76,51.60 -3.86,51.44 -3.97,51.28 -4.03,51.10 -4.09,50.92 -4.11,50.73 -4.13,50.54 -4.10,50.35 -4.07,50.17 -3.45,48.79 -2.82,47.41 -2.07,44.65 -1.31,41.88 -0.83,38.37 -0.35,34.87 -0.09,31.11 0.16,27.36 -0.11,23.30 -0.38,19.25 -1.00,14.03 -1.63,8.81 -1.68,4.40 -1.74,0 -1.72,-0.20 -1.69,-0.41 -1.62,-0.61 -1.54,-0.81 -1.42,-0.98 -1.30,-1.15 -1.15,-1.29 -0.99,-1.43 -0.80,-1.53 -0.61,-1.63 -0.41,-1.68 -0.21,-1.73 0.00,-1.73 0.21,-1.73 0.41,-1.68 0.62,-1.63 0.80,-1.53 0.99,-1.43 1.15,-1.29 1.30,-1.15 1.42,-0.98 1.54,-0.81 1.62,-0.61 1.69,-0.41 1.72,-0.20 1.74,0.00 1.74,0.00 L 1.74,0 Z"/></g><g transform="translate(442.6666259765625 167.33334350585938) rotate(0 -2 88.33332824707031)" stroke="none"><path fill="#000000" d="M 1.53,0.27 Q 1.53,0.27 0.35,6.78 -0.82,13.29 -2.88,22.60 -4.93,31.91 -6.95,43.30 -8.97,54.69 -11.57,66.47 -14.17,78.25 -15.45,90.07 -16.74,101.89 -16.90,114.55 -17.07,127.20 -16.00,138.10 -14.93,148.99 -14.09,156.13 -13.25,163.27 -12.89,166.89 -12.54,170.52 -12.13,172.17 -11.73,173.81 -11.28,174.53 -10.83,175.25 -10.82,175.45 -10.80,175.65 -10.83,175.85 -10.87,176.06 -10.95,176.24 -11.03,176.43 -11.15,176.59 -11.28,176.76 -11.44,176.89 -11.59,177.01 -11.78,177.10 -11.97,177.19 -12.17,177.23 -12.37,177.27 -12.57,177.26 -12.77,177.25 -12.97,177.19 -13.17,177.13 -13.34,177.03 -13.52,176.93 -13.67,176.78 -13.81,176.64 -13.92,176.47 -14.03,176.30 -14.09,176.10 -14.16,175.91 -12.11,173.78 -10.06,171.66 -7.88,169.22 -5.69,166.79 -3.40,164.02 -1.11,161.25 1.29,159.21 3.71,157.17 6.57,155.87 9.44,154.56 11.75,152.95 14.06,151.34 14.30,151.23 14.53,151.13 14.79,151.11 15.05,151.09 15.30,151.16 15.55,151.22 15.76,151.36 15.98,151.50 16.14,151.70 16.30,151.90 16.39,152.15 16.47,152.39 16.48,152.65 16.49,152.90 16.41,153.15 16.33,153.40 16.18,153.60 16.03,153.81 15.82,153.96 15.61,154.11 15.36,154.18 15.12,154.26 14.86,154.25 14.60,154.24 14.36,154.15 14.12,154.06 13.92,153.90 13.72,153.74 13.58,153.52 13.44,153.30 13.38,153.05 13.32,152.80 13.35,152.54 13.37,152.29 13.47,152.05 13.57,151.82 13.75,151.63 13.92,151.43 14.14,151.31 14.37,151.18 14.62,151.14 14.88,151.09 15.13,151.13 15.39,151.16 15.62,151.28 15.85,151.39 16.03,151.58 16.21,151.76 16.32,151.99 16.43,152.22 16.47,152.48 16.50,152.73 16.45,152.98 16.40,153.24 16.27,153.46 16.14,153.68 15.95,153.86 15.76,154.03 15.76,154.03 15.76,154.03 13.15,155.52 10.54,157.02 7.99,158.14 5.43,159.26 3.21,161.13 0.99,163.00 -1.30,165.82 -3.61,168.65 -5.91,171.24 -8.22,173.84 -9.52,174.54 -10.83,175.24 -10.82,175.45 -10.80,175.65 -10.83,175.85 -10.87,176.06 -10.95,176.24 -11.03,176.43 -11.15,176.59 -11.28,176.76 -11.44,176.89 -11.59,177.01 -11.78,177.10 -11.97,177.19 -12.17,177.23 -12.37,177.27 -12.57,177.26 -12.77,177.25 -12.97,177.19 -13.17,177.13 -13.34,177.03 -13.52,176.93 -13.67,176.78 -13.81,176.64 -13.92,176.47 -14.03,176.30 -14.09,176.10 -14.16,175.91 -14.38,175.16 -14.61,174.40 -14.89,172.59 -15.18,170.78 -15.54,167.18 -15.90,163.58 -16.74,156.41 -17.59,149.25 -18.68,138.21 -19.77,127.17 -19.61,114.38 -19.45,101.60 -18.16,89.63 -16.87,77.66 -14.31,65.93 -11.75,54.20 -9.75,42.75 -7.75,31.29 -5.76,22.03 -3.77,12.77 -2.65,6.25 -1.53,-0.27 -1.48,-0.45 -1.42,-0.63 -1.33,-0.79 -1.23,-0.95 -1.10,-1.08 -0.97,-1.22 -0.81,-1.32 -0.65,-1.42 -0.47,-1.47 -0.29,-1.53 -0.10,-1.54 0.08,-1.55 0.26,-1.52 0.45,-1.49 0.62,-1.41 0.79,-1.34 0.94,-1.22 1.09,-1.11 1.21,-0.96 1.33,-0.81 1.40,-0.64 1.48,-0.47 1.52,-0.28 1.55,-0.10 1.54,0.08 1.53,0.27 1.53,0.27 L 1.53,0.27 Z"/></g><g transform="translate(464.6666259765625 316.66668701171875) rotate(0 12.666748046875 -128.00001525878906)" stroke="none"><path fill="#000000" d="M -0.97,-1.46 Q -0.97,-1.46 0.10,-2.27 1.19,-3.07 2.03,-4.46 2.88,-5.84 4.31,-8.55 5.73,-11.25 7.10,-15.38 8.46,-19.51 9.63,-25.62 10.80,-31.74 11.12,-36.40 11.43,-41.06 11.01,-44.48 10.58,-47.90 10.04,-50.30 9.49,-52.70 8.41,-53.56 7.34,-54.42 6.38,-53.95 5.41,-53.49 3.92,-52.20 2.42,-50.92 -0.41,-48.06 -3.26,-45.21 -6.72,-40.26 -10.19,-35.30 -13.41,-30.12 -16.64,-24.94 -18.96,-20.67 -21.29,-16.39 -22.43,-12.76 -23.58,-9.13 -24.27,-6.60 -24.97,-4.08 -25.26,-1.75 -25.54,0.57 -25.48,2.83 -25.42,5.10 -24.47,7.83 -23.52,10.57 -21.63,13.80 -19.73,17.04 -17.95,19.99 -16.17,22.93 -14.89,24.50 -13.61,26.06 -10.93,26.54 -8.25,27.01 -5.77,25.98 -3.30,24.95 0.19,22.12 3.68,19.28 8.57,12.42 13.46,5.55 19.37,-7.45 25.27,-20.47 31.04,-39.20 36.81,-57.92 40.98,-80.02 45.15,-102.13 46.16,-127.36 47.17,-152.60 43.96,-180.13 40.76,-207.66 34.61,-234.86 28.47,-262.06 25.47,-274.79 22.48,-287.53 21.02,-292.92 19.56,-298.31 18.89,-300.43 18.22,-302.55 17.45,-302.86 16.69,-303.17 16.65,-303.35 16.61,-303.53 16.61,-303.72 16.62,-303.90 16.66,-304.08 16.71,-304.25 16.80,-304.41 16.89,-304.58 17.01,-304.71 17.14,-304.84 17.29,-304.95 17.45,-305.05 17.62,-305.11 17.79,-305.17 17.97,-305.19 18.16,-305.21 18.34,-305.18 18.52,-305.15 18.69,-305.08 18.86,-305.02 19.01,-304.91 19.16,-304.80 19.28,-304.66 19.40,-304.52 19.48,-304.36 19.56,-304.19 18.47,-300.58 17.39,-296.96 17.00,-289.25 16.60,-281.55 16.42,-265.20 16.24,-248.85 16.93,-221.99 17.62,-195.12 19.64,-165.89 21.66,-136.66 25.39,-105.67 29.11,-74.68 32.42,-53.85 35.73,-33.03 38.67,-17.47 41.61,-1.92 43.81,10.05 46.02,22.04 47.16,29.45 48.29,36.87 48.77,40.60 49.25,44.33 49.92,46.77 50.60,49.21 50.61,49.46 50.62,49.71 50.56,49.95 50.49,50.20 50.35,50.40 50.21,50.61 50.01,50.77 49.81,50.92 49.57,51.00 49.34,51.08 49.08,51.08 48.83,51.08 48.59,51.00 48.36,50.92 48.16,50.77 47.96,50.62 47.81,50.41 47.67,50.21 47.60,49.96 47.54,49.72 47.55,49.47 47.56,49.22 47.65,48.99 47.75,48.75 47.91,48.56 48.07,48.37 48.29,48.24 48.50,48.11 48.75,48.05 48.99,48.00 49.24,48.02 49.49,48.05 49.72,48.16 49.95,48.26 50.13,48.43 50.31,48.61 50.43,48.83 50.55,49.05 50.59,49.30 50.63,49.54 50.59,49.79 50.55,50.04 50.44,50.26 50.32,50.49 50.14,50.66 49.96,50.83 49.73,50.94 49.50,51.04 49.25,51.07 49.00,51.10 48.75,51.05 48.51,50.99 48.29,50.86 48.08,50.74 47.91,50.54 47.75,50.35 47.66,50.12 47.56,49.89 47.56,49.89 47.56,49.89 47.11,47.28 46.65,44.67 46.17,40.97 45.69,37.26 44.57,29.89 43.44,22.52 41.23,10.54 39.02,-1.44 36.08,-17.02 33.14,-32.61 29.82,-53.49 26.51,-74.37 22.77,-105.43 19.03,-136.48 17.01,-165.77 14.99,-195.05 14.30,-221.97 13.61,-248.88 13.79,-265.29 13.97,-281.69 14.42,-289.71 14.88,-297.73 15.78,-300.45 16.69,-303.17 16.65,-303.35 16.61,-303.53 16.61,-303.72 16.62,-303.90 16.66,-304.08 16.71,-304.25 16.80,-304.41 16.89,-304.58 17.01,-304.71 17.14,-304.84 17.29,-304.95 17.45,-305.05 17.62,-305.11 17.79,-305.17 17.97,-305.19 18.16,-305.21 18.34,-305.18 18.52,-305.15 18.69,-305.08 18.86,-305.02 19.01,-304.91 19.16,-304.80 19.28,-304.66 19.40,-304.52 19.48,-304.36 19.56,-304.19 19.87,-304.08 20.18,-303.97 21.14,-301.49 22.10,-299.00 23.58,-293.57 25.05,-288.13 28.05,-275.39 31.05,-262.64 37.22,-235.30 43.39,-207.97 46.61,-180.23 49.83,-152.49 48.81,-127.06 47.79,-101.63 43.59,-79.38 39.39,-57.13 33.58,-38.24 27.76,-19.34 21.74,-6.09 15.73,7.16 10.60,14.31 5.48,21.47 1.64,24.55 -2.18,27.64 -5.22,28.82 -8.26,30.01 -11.11,29.78 -13.95,29.56 -14.81,28.65 -15.66,27.74 -17.05,26.03 -18.44,24.31 -20.24,21.34 -22.03,18.38 -24.04,14.91 -26.05,11.44 -27.08,8.32 -28.10,5.21 -28.17,2.73 -28.24,0.24 -27.94,-2.27 -27.64,-4.80 -26.95,-7.38 -26.26,-9.97 -25.04,-13.86 -23.83,-17.74 -21.50,-22.12 -19.17,-26.50 -15.96,-31.78 -12.74,-37.06 -9.18,-42.28 -5.62,-47.49 -2.75,-50.54 0.11,-53.58 2.15,-55.35 4.18,-57.12 6.11,-57.51 8.03,-57.91 9.54,-57.18 11.05,-56.45 11.62,-54.89 12.20,-53.33 12.80,-50.79 13.40,-48.25 13.87,-44.57 14.34,-40.88 14.06,-36.04 13.77,-31.19 12.63,-24.87 11.49,-18.54 10.12,-14.14 8.75,-9.74 7.36,-6.81 5.96,-3.88 4.68,-1.93 3.40,0.00 2.19,0.73 0.97,1.46 0.78,1.56 0.59,1.65 0.39,1.70 0.18,1.75 -0.02,1.75 -0.24,1.74 -0.44,1.69 -0.65,1.63 -0.83,1.53 -1.02,1.43 -1.18,1.29 -1.33,1.14 -1.45,0.97 -1.57,0.79 -1.64,0.59 -1.71,0.39 -1.74,0.18 -1.76,-0.02 -1.73,-0.23 -1.70,-0.44 -1.62,-0.64 -1.54,-0.84 -1.42,-1.01 -1.30,-1.19 -1.13,-1.32 -0.97,-1.46 -0.97,-1.46 L -0.97,-1.46 Z"/></g></svg>